<!-- Logo SVG do R10 Piauí baseado na imagem fornecida -->
<svg width="200" height="80" viewBox="0 0 200 80" xmlns="http://www.w3.org/2000/svg">
  <defs>
    <linearGradient id="r10Gradient" x1="0%" y1="0%" x2="100%" y2="100%">
      <stop offset="0%" style="stop-color:#FF8C00;stop-opacity:1" />
      <stop offset="50%" style="stop-color:#FF6B00;stop-opacity:1" />
      <stop offset="100%" style="stop-color:#E53935;stop-opacity:1" />
    </linearGradient>
  </defs>
  
  <!-- R10 -->
  <g>
    <!-- R -->
    <path d="M10 15 L10 45 L25 45 Q35 45 35 35 Q35 28 28 25 L35 15 L28 15 L22 24 L18 24 L18 15 Z M18 30 L25 30 Q27 30 27 33 Q27 37 25 37 L18 37 Z" fill="url(#r10Gradient)"/>
    
    <!-- 1 -->
    <rect x="45" y="15" width="8" height="30" fill="url(#r10Gradient)"/>
    <rect x="42" y="15" width="14" height="5" fill="url(#r10Gradient)"/>
    <rect x="42" y="40" width="14" height="5" fill="url(#r10Gradient)"/>
    
    <!-- 0 -->
    <ellipse cx="72" cy="30" rx="12" ry="15" fill="none" stroke="url(#r10Gradient)" stroke-width="8"/>
    
    <!-- Mapa do Piauí -->
    <path d="M95 15 Q105 15 110 25 Q115 20 120 25 Q125 15 135 20 Q130 30 125 35 Q120 45 110 42 Q105 40 100 45 Q95 40 95 30 Q95 25 95 15" fill="url(#r10Gradient)" opacity="0.8"/>
  </g>
  
  <!-- PIAUÍ -->
  <g>
    <text x="10" y="60" font-family="Arial Black, sans-serif" font-size="12" font-weight="900" fill="#555">PIAUÍ</text>
  </g>
  
  <!-- DÁ GOSTO DE VER -->
  <g>
    <text x="10" y="75" font-family="Arial, sans-serif" font-size="8" font-weight="normal" fill="#666">DÁ GOSTO DE VER</text>
  </g>
</svg>
